HIERARCHY
ROOT Hips
{
	OFFSET	0.00	0.00	0.00
	CHANNELS 6 Xposition Yposition Zposition Zrotation Xrotation Yrotation
	JOINT LeftUpLeg
	{
		OFFSET	 0.126116	-0.065224	 0.014019
		CHANNELS 3 Zrotation Xrotation Yrotation
		JOINT LeftLeg
		{
			OFFSET	 0.000000	 0.569914	 0.000000
			CHANNELS 3 Zrotation Xrotation Yrotation
			JOINT LeftFoot
			{
				OFFSET	 0.000000	 0.544423	 0.000000
				CHANNELS 3 Zrotation Xrotation Yrotation
				JOINT LeftToeBase
				{
					OFFSET	 0.000000	 0.207117	 0.000000
					CHANNELS 3 Zrotation Xrotation Yrotation
					End Site
					{
						OFFSET	 0.000000	 0.207117	 0.000000
					}
				}
			}
		}
	}
	JOINT RightUpLeg
	{
		OFFSET	-0.124023	-0.065224	 0.008373
		CHANNELS 3 Zrotation Xrotation Yrotation
		JOINT RightLeg
		{
			OFFSET	 0.000000	 0.570047	 0.000000
			CHANNELS 3 Zrotation Xrotation Yrotation
			JOINT RightFoot
			{
				OFFSET	 0.000000	 0.544354	 0.000000
				CHANNELS 3 Zrotation Xrotation Yrotation
				JOINT RightToeBase
				{
					OFFSET	 0.000000	 0.207540	 0.000000
					CHANNELS 3 Zrotation Xrotation Yrotation
					End Site
					{
						OFFSET	 0.000000	 0.207540	 0.000000
					}
				}
			}
		}
	}
	JOINT Spine
	{
		OFFSET	 0.000184	 0.117403	 0.007763
		CHANNELS 3 Zrotation Xrotation Yrotation
		JOINT Spine1
		{
			OFFSET	 0.000000	 0.137269	 0.000000
			CHANNELS 3 Zrotation Xrotation Yrotation
			JOINT Spine2
			{
				OFFSET	 0.000000	 0.156879	 0.000000
				CHANNELS 3 Zrotation Xrotation Yrotation
				JOINT LeftShoulder
				{
					OFFSET	 0.080501	 0.160143	 0.002496
					CHANNELS 3 Zrotation Xrotation Yrotation
					JOINT LeftArm
					{
						OFFSET	 0.000000	 0.164363	 0.000000
						CHANNELS 3 Zrotation Xrotation Yrotation
						JOINT LeftForeArm
						{
							OFFSET	 0.000000	 0.364576	 0.000000
							CHANNELS 3 Zrotation Xrotation Yrotation
							JOINT LeftHand
							{
								OFFSET	 0.000000	 0.360812	 0.000000
								CHANNELS 3 Zrotation Xrotation Yrotation
								JOINT LeftHandIndex1
								{
									OFFSET	 0.000000	 0.086006	 0.000000
									CHANNELS 3 Zrotation Xrotation Yrotation
									JOINT LeftHandIndex2
									{
										OFFSET	 0.000000	 0.047237	 0.000000
										CHANNELS 3 Zrotation Xrotation Yrotation
										JOINT LeftHandIndex3
										{
											OFFSET	-0.004284	 0.038165	 0.000551
											CHANNELS 3 Zrotation Xrotation Yrotation
											End Site
											{
												OFFSET	-0.004284	 0.038165	 0.000551
											}
										}
									}
								}
							}
						}
					}
				}
				JOINT Neck
				{
					OFFSET	 0.000000	 0.176489	 0.000000
					CHANNELS 3 Zrotation Xrotation Yrotation
					JOINT Head
					{
						OFFSET	 0.000000	 0.077941	 0.001747
						CHANNELS 3 Zrotation Xrotation Yrotation
						End Site
						{
							OFFSET	 0.000000	 0.077941	 0.001747
						}
					}
				}
				JOINT RightShoulder
				{
					OFFSET	-0.080363	 0.159706	-0.000306
					CHANNELS 3 Zrotation Xrotation Yrotation
					JOINT RightArm
					{
						OFFSET	 0.000000	 0.164196	 0.000000
						CHANNELS 3 Zrotation Xrotation Yrotation
						JOINT RightForeArm
						{
							OFFSET	 0.000000	 0.365611	 0.000000
							CHANNELS 3 Zrotation Xrotation Yrotation
							JOINT RightHand
							{
								OFFSET	 0.000000	 0.360648	 0.000000
								CHANNELS 3 Zrotation Xrotation Yrotation
								JOINT RightHandIndex1
								{
									OFFSET	 0.000000	 0.069977	 0.000000
									CHANNELS 3 Zrotation Xrotation Yrotation
									JOINT RightHandIndex2
									{
										OFFSET	 0.000000	 0.052305	 0.000000
										CHANNELS 3 Zrotation Xrotation Yrotation
										JOINT RightHandIndex3
										{
											OFFSET	 0.009002	 0.042196	 0.000782
											CHANNELS 3 Zrotation Xrotation Yrotation
											End Site
											{
												OFFSET	 0.009002	 0.042196	 0.000782
											}
										}
									}
								}
							}
						}
					}
				}
			}
		}
	}
}
MOTION
Frames:    5
Frame Time: 0.03333334
 0.603217	 1.094437	-0.180321	 18.860850	-16.802230	-87.194710	 158.123800	 38.960170	-5.615912	 21.840820	-76.080990	 29.660410	 51.186020	 27.134480	-54.085670	 0.061906	 43.066110	-3.975359	 147.945400	 66.814390	 17.075830	-14.968210	-71.547190	-15.523580	-61.590000	 64.828830	 86.139400	-1.645605	 33.306480	 2.847659	 3.949255	 12.570060	-1.842751	-18.324050	-3.091353	 1.420414	 18.629650	 22.190520	 13.357750	-102.857800	 3.977421	 91.063520	-17.928380	 71.893590	 30.315370	 29.217620	-1.480922	 1.006558	-25.927390	-4.267465	 20.849860	-2.623753	 1.609658	-8.348168	-6.938462	 7.758370	 1.948333	 4.963066	-4.014628	-0.346955	 12.004510	 3.540413	 2.343328	 0.610872	 7.250055	-40.857600	 88.925390	 6.319831	-91.825930	-65.294430	 42.190240	 73.620980	-68.395270	-4.917324	 6.864252	 13.133240	 20.005940	-9.114269	-3.072608	 16.529870	-2.178024	 14.261400	 21.726170	-6.411738	-8.239867	-2.131385	 0.447455
 0.676906	 1.134758	-0.169354	 14.505600	-9.089197	-66.230510	 166.456500	 14.158180	-5.930840	 6.557511	-51.084570	 12.170100	 57.160790	 45.001570	-76.251350	 1.920464	 39.698410	-6.651205	 137.482400	 46.458610	 38.579190	-10.048780	-63.714200	-10.510820	-54.315300	 61.673780	 77.189580	-1.649998	 33.374180	 2.851463	 2.998413	 9.351463	-1.192623	-11.158400	-1.424543	 1.528193	 13.332160	 13.392160	 9.913870	-101.511900	-0.274052	 91.550980	-4.833499	 69.806320	 16.033440	 22.600030	-1.178000	 1.067125	-17.464230	 2.318415	 19.163720	-2.545891	 12.364360	-7.759455	-7.027091	 8.168373	 2.030207	 4.963066	-4.014628	-0.346955	 16.093930	 1.998631	-0.463403	-2.351210	 3.288080	-43.506510	 88.583710	 0.374405	-91.715180	-66.524410	 31.379620	 87.356580	-66.659450	-4.856413	 5.660577	 15.709280	 8.308404	-14.341370	-2.912581	 16.657940	-2.582015	 14.322670	 22.479060	-6.636108	-8.239867	-2.131385	 0.447455
 0.785386	 1.142524	-0.156354	 11.359390	-4.717454	-49.024560	 165.161700	 14.092700	 8.158996	 5.601687	-46.633430	 10.129050	 76.649950	 46.741260	-96.143660	 1.618609	 27.133090	-7.459002	 133.851700	 35.211690	 50.596970	-7.860125	-57.780780	-7.691729	-44.621940	 57.716830	 65.168330	-1.735662	 33.032420	 3.055820	 1.379887	 7.444391	 0.008018	-2.443556	 3.785110	 1.583052	 3.672865	 6.077905	 4.888079	-101.599100	-3.109778	 95.663620	 14.707060	 61.718300	-7.436368	 27.102280	-1.394335	 1.297694	-7.414453	 0.656914	 22.769820	-3.776801	 14.560750	-7.242015	-7.091500	 8.378117	 2.069880	 4.963066	-4.014628	-0.346955	 16.643990	-6.206281	-4.055467	-0.360491	-3.279302	-45.707860	 87.536850	-5.543992	-90.819260	-50.686520	 19.448750	 91.369140	-59.189980	-4.544168	 5.160451	 19.300650	-7.791286	-7.028107	-2.909722	 16.476590	-2.895927	 14.361880	 23.099860	-6.817974	-8.239867	-2.131385	 0.447455
 0.876825	 1.175860	-0.141109	 8.331539	-3.600398	-41.431400	 163.078800	 13.264580	 14.603050	 4.731756	-41.818860	 8.028343	 77.590740	 45.457040	-90.879620	 1.397989	 23.660680	-7.474008	 156.695200	 37.614900	 23.513950	-7.305674	-55.872710	-6.754395	-56.500670	 59.180080	 74.835220	-1.907650	 31.867520	 3.607399	 0.508768	 6.596090	 0.400211	-2.447860	 3.402410	 0.538879	 2.677804	 4.870125	 1.047923	-105.669100	-10.968160	 99.120880	 27.706460	 53.744150	-19.955820	 29.405370	-1.495110	 1.416189	-6.722334	-2.203917	 17.138800	-5.431144	 15.258920	-6.601021	-7.158720	 8.608375	 2.112403	 4.963066	-4.014628	-0.346955	 14.715670	-7.996348	-8.481515	 2.079597	-2.459339	-45.851130	 88.349130	-3.033768	-91.186830	-34.174710	 12.377270	 81.165320	-49.640400	-4.033312	 4.410893	 31.469180	-16.484770	 10.559790	-2.906998	 16.301710	-3.198572	 14.382340	 23.616450	-6.965495	-8.239867	-2.131385	 0.447455
 0.937257	 1.212573	-0.124743	 4.632915	-3.891157	-39.309620	 164.178000	 8.119532	 15.984100	 3.575608	-34.075720	 5.336007	 74.664110	 44.894220	-82.574860	 1.398021	 23.660650	-7.474025	 173.617800	 31.808370	 1.023335	-5.218301	-46.541520	-4.288356	-54.164490	 56.741070	 69.241470	-1.678311	 30.081310	 3.641984	-0.158490	 5.821343	 0.218495	-2.355840	 1.869016	-0.445837	 1.554482	 3.704073	-0.920138	-108.786100	-18.868600	 101.328700	 33.110330	 50.765170	-25.685640	 31.093190	-1.568309	 1.434427	-9.588503	-8.103263	 9.723915	-6.682888	 15.569230	-6.114616	-7.224184	 8.842867	 2.156962	 4.963066	-4.014628	-0.346955	 11.753760	-8.599475	-11.582090	 2.115143	 0.515176	-44.690640	 90.591760	 0.736812	-91.940700	-26.043310	 9.750562	 70.142210	-45.618530	-3.783847	 4.013515	 38.084130	-15.760960	 23.459270	-2.904371	 16.137550	-3.482627	 14.401140	 24.093860	-7.101951	-8.239867	-2.131385	 0.447455
